<svg width="220" height="60" viewBox="0 0 220 60" fill="none" xmlns="http://www.w3.org/2000/svg">
  <rect width="220" height="60" rx="12" fill="#0B0B0B"/>
  <path d="M10 46C32 41 54 41 76 46" stroke="#C8A36A" stroke-width="2" stroke-linecap="round"/>
  <path d="M84 22C86 18 92 15 96 18L100 15L105 17L107 14L111 15L116 20L124 22L128 27L132 27C136 28 137 33 133 35L126 35L121 31L116 35L110 36L104 41L98 41L94 37L89 38L86 35L82 35L80 30L84 26V22Z" fill="#C8A36A"/>
  <path d="M96 40L93 47M106 40L103 47M118 36L117 46M126 34L129 45" stroke="#C8A36A" stroke-width="2" stroke-linecap="round"/>
  <circle cx="107" cy="20" r="1.5" fill="#0B0B0B"/>
  <path d="M138 18H140L143 24H145L148 18H150V28H148V21L145 26H143L140 21V28H138V18ZM154 18H162V20H156V22H162V24H156V26H162V28H154V18ZM166 18H169L173 23V18H175V28H172L168 23V28H166V18ZM179 18H181V28H179V18ZM185 18H188L192 23V18H194V28H191L187 23V28H185V18ZM198 18H206V20H200V22H205V24H200V28H198V18Z" fill="#EDEDED"/>
  <path d="M138 34H210" stroke="#C8A36A" stroke-width="1" opacity="0.55"/>
  <text x="138" y="47" fill="#EDEDED" font-family="Inter, Arial, sans-serif" font-size="9" letter-spacing="2">LEATHRIC</text>
</svg>
